<svg xmlns="http://www.w3.org/2000/svg" viewBox="0 0 24 24" fill="currentColor">
  <path d="M10.362 1.636a.5.5 0 0 1 .545.273L12.5 5.09l3.18 1.364a.5.5 0 0 1 0 .91L12.5 8.727l-1.593 3.182a.5.5 0 0 1-.91 0L8.41 8.727l-3.182-1.364a.5.5 0 0 1 0-.91L8.41 5.09l1.593-3.182a.5.5 0 0 1 .359-.272z"/>
  <path d="M18.5 12.5a.5.5 0 0 1 .473.342l.5 1.684 1.684.5a.5.5 0 0 1 0 .948l-1.684.5-.5 1.684a.5.5 0 0 1-.946 0l-.5-1.684-1.684-.5a.5.5 0 0 1 0-.948l1.684-.5.5-1.684a.5.5 0 0 1 .473-.342z"/>
  <path d="M7.5 14.5a.5.5 0 0 1 .447.276l.553 1.224 1.224.553a.5.5 0 0 1 0 .894l-1.224.553-.553 1.224a.5.5 0 0 1-.894 0l-.553-1.224-1.224-.553a.5.5 0 0 1 0-.894l1.224-.553.553-1.224A.5.5 0 0 1 7.5 14.5z"/>
</svg>
