<svg xmlns="http://www.w3.org/2000/svg" width="163" height="163" viewBox="0 0 163 163">
<g>
<path d="M 117.50 163.00 L 0.00 163.00 L 10.50 162.99 L 15.85 142.75 C18.79,131.61 21.71,121.04 22.35,119.25 C23.34,116.45 28.45,112.83 59.98,92.56 C80.04,79.67 96.55,69.22 96.68,69.34 C96.80,69.47 91.30,90.48 84.46,116.03 C77.62,141.59 72.01,162.61 72.01,162.75 C72.00,162.89 92.47,163.00 117.50,163.00 Z" fill="rgb(7,37,82)"/>
<path d="M 75.24 162.84 C75.37,162.83 75.50,162.82 75.64,162.81 L 79.28 162.50 L 93.63 109.00 C101.53,79.57 108.20,54.93 108.47,54.23 C109.14,52.47 108.60,52.79 85.10,67.99 C73.93,75.21 64.62,80.96 64.43,80.76 C64.23,80.56 65.73,74.21 67.77,66.65 L 71.47 52.90 L 111.77 26.82 C133.94,12.48 152.21,0.92 152.38,1.12 C152.54,1.33 144.42,32.10 134.33,69.50 C124.24,106.90 114.46,143.24 112.59,150.25 L 109.20 163.00 C93.74,162.98 80.96,162.92 75.24,162.84 ZM 72.01 162.75 C72.01,162.61 77.62,141.59 84.46,116.03 C77.79,140.93 72.30,161.55 72.02,162.76 C72.01,162.75 72.01,162.75 72.01,162.75 Z" fill="rgb(53,148,249)"/>
<path d="M 0.00 81.50 L 0.00 0.00 L 81.50 0.00 L 163.00 0.00 L 163.00 81.50 L 163.00 163.00 L 136.10 163.00 L 109.19 163.00 L 112.59 150.25 C114.46,143.24 124.24,106.90 134.33,69.50 C144.42,32.10 152.54,1.33 152.38,1.12 C152.21,0.92 133.94,12.48 111.77,26.82 L 71.47 52.90 L 67.77 66.65 C65.73,74.21 64.23,80.56 64.43,80.76 C64.62,80.96 73.93,75.21 85.10,67.99 C108.60,52.79 109.14,52.47 108.47,54.23 C108.20,54.93 101.53,79.57 93.63,109.00 L 79.28 162.50 L 75.64 162.81 C73.64,162.98 72.00,162.98 72.01,162.81 C72.01,162.64 77.62,141.59 84.46,116.03 C91.30,90.48 96.80,69.47 96.68,69.34 C96.55,69.22 80.04,79.67 59.98,92.56 C28.45,112.83 23.34,116.45 22.35,119.25 C21.71,121.04 18.79,131.61 15.85,142.75 L 10.50 162.99 L 5.25 163.00 L 0.00 163.00 L 0.00 81.50 Z" fill="rgb(253,254,254)"/>
</g>
</svg>